<?xml version="1.0" encoding="UTF-8" standalone="no"?><!DOCTYPE svg PUBLIC "-//W3C//DTD SVG 1.1//EN" "http://www.w3.org/Graphics/SVG/1.1/DTD/svg11.dtd"><svg width="100%" height="100%" viewBox="0 0 1280 800" version="1.1" xmlns="http://www.w3.org/2000/svg" xmlns:xlink="http://www.w3.org/1999/xlink" xml:space="preserve" xmlns:serif="http://www.serif.com/" style="fill-rule:evenodd;clip-rule:evenodd;stroke-linejoin:round;stroke-miterlimit:2;"><path d="M1200.5,398.896c0,-111.981 -90.915,-202.896 -202.896,-202.896l-715.208,0c-111.981,0 -202.896,90.915 -202.896,202.896l0,2.208c0,111.981 90.915,202.896 202.896,202.896l715.208,0c111.981,0 202.896,-90.915 202.896,-202.896l0,-2.208Z" style="fill:#fff600;"/><path d="M1200.47,404.695c-1.919,110.327 -92.083,199.305 -202.865,199.305l-715.208,0c-110.782,0 -200.946,-88.978 -202.865,-199.305l1120.94,0Z" style="fill:#ff26f1;"/><path d="M419.248,330.247c-22.464,0 -39.744,9.504 -51.264,24.48c-9.792,-15.84 -27.072,-24.48 -47.232,-24.48c-18.72,0 -32.832,6.624 -42.624,17.568l0,-13.248l-46.08,0l0,144.576l46.08,0l0,-70.848c0,-24.192 10.944,-36.576 27.648,-36.576c13.824,0 24.48,10.368 24.48,26.784l0,80.64l46.08,0l0,-70.848c0,-24.192 11.232,-36.576 28.224,-36.576c13.536,0 24.192,10.368 24.192,26.784l0,80.64l45.792,0l0,-90.432c0,-35.136 -24.48,-58.464 -55.296,-58.464Z" style="fill:#270025;fill-rule:nonzero;"/><path d="M576.496,330.823c-43.776,0 -80.064,30.528 -80.064,76.032c0,45.792 36.288,76.32 80.064,76.32c42.912,0 79.2,-30.528 79.2,-76.32c0,-45.504 -36.288,-76.032 -79.2,-76.032Zm0,113.472c-18.72,0 -35.712,-14.688 -35.712,-37.44c0,-22.464 16.992,-37.44 35.712,-37.44c17.856,0 34.848,14.976 34.848,37.44c0,22.752 -16.992,37.44 -34.848,37.44Z" style="fill:#270025;fill-rule:nonzero;"/><path d="M878.608,382.951c0,-56.448 -45.216,-101.088 -102.816,-101.088c-57.6,0 -102.816,44.64 -102.816,101.088c0,56.16 45.216,100.512 102.816,100.512c8.928,0 17.28,-1.152 25.632,-2.88l39.456,46.944l35.712,-31.68l-31.68,-38.016c20.736,-18.432 33.696,-44.928 33.696,-74.88Zm-158.112,0c0,-33.12 23.904,-57.6 55.296,-57.6c31.392,0 55.296,24.48 55.296,57.6c0,32.832 -23.904,57.024 -55.296,57.024c-31.392,0 -55.296,-24.192 -55.296,-57.024Z" style="fill:#270025;fill-rule:nonzero;"/><path d="M1047.95,437.671l-95.04,0l0,-151.488l-47.52,0l0,192.96l142.56,0l0,-41.472Z" style="fill:#270025;fill-rule:nonzero;"/></svg>